<svg xmlns="http://www.w3.org/2000/svg" viewBox="0 0 158.76 42.39"><title>Asset 2</title><g id="Layer_2" data-name="Layer 2"><g id="Layer_1-2" data-name="Layer 1"><path d="M118.85,20.19a.92.92,0,0,0,.66.19.94.94,0,0,0,.49-.81.79.79,0,0,0-.41-.86,1.09,1.09,0,0,0-1,.15.91.91,0,0,0-.19.92Z"/><path d="M128,39.4c.06,0,.09,0,.09,0h0A0,0,0,0,0,128,39.4Z"/><path d="M147.13,34.38s0,0,0,0v0S147.13,34.36,147.13,34.38Z"/><path d="M147.94,39.42s0,0,0,0v0S147.94,39.41,147.94,39.42Z"/><path d="M147.3,34.51s0,0,0,0v0S147.3,34.52,147.3,34.51Z"/><path d="M147.15,34.51s0,0,0,.06v.09c.06,0,.09,0,.09-.13h0a0,0,0,0,1,0,0V34.4h-.09C147.2,34.46,147.19,34.49,147.15,34.51Z"/><path d="M150.66,42.28c.07-.07,0-.09-.06-.06S150.58,42.36,150.66,42.28Z"/><path d="M147.51,36.32l-.13-.13c-.06.06-.06.09,0,.11a.1.1,0,0,1,.06.11C147.54,36.41,147.57,36.38,147.51,36.32Z"/><path d="M148.67,41.45c0,.08,0,.08,0,0S148.7,41.37,148.67,41.45Z"/><path d="M147.39,36.45a0,0,0,0,0,0,0C147.37,36.44,147.36,36.45,147.39,36.45Z"/><path d="M148.9,41.6s0-.06-.06-.06S148.86,41.64,148.9,41.6Z"/><path d="M148.78,41.52s0,.05.06,0S148.82,41.47,148.78,41.52Z"/><path d="M138.24,26c0-.08,0-.08,0,0S138.24,26.11,138.24,26Z"/><path d="M152.56,40.9c0,.09,0,.09,0,0S152.59,40.81,152.56,40.9Z"/><path d="M147.43,37a0,0,0,0,0,0,0C147.41,36.95,147.4,37,147.43,37Z"/><path d="M147.34,35.34s-.07,0-.13-.09,0,0-.09,0,0,.14,0,.15,0,.05-.06.11,0,0,0,.09h.17A.74.74,0,0,0,147.34,35.34Z"/><path d="M147.39,36.84c0,.06,0,.06.09,0S147.39,36.78,147.39,36.84Z"/><path d="M147.56,36.92a.08.08,0,0,0-.09-.08v.08Z"/><path d="M153.07,40.17c0,.09,0,.09,0,0S153.1,40.08,153.07,40.17Z"/><path d="M152.45,40.79c0,.07,0,.11.06.11s0-.08,0-.08,0,0,0,0S152.47,40.72,152.45,40.79Z"/><path d="M151.15,41.92a0,0,0,0,0,0,0C151.13,41.94,151.15,41.95,151.15,41.92Z"/><path d="M147.51,32.52a0,0,0,0,0,0,0c-.11,0-.17,0-.17.09s.08,0,.06,0,0,.06.06.06,0,0,.13,0,0,0-.06,0S147.51,32.58,147.51,32.52Z"/><path d="M153.31,39.55s0-.06,0-.06S153.26,39.59,153.31,39.55Z"/><path d="M148.2,40.34c.06.14.11.21.17.21S148.31,40.4,148.2,40.34Z"/><path d="M148.37,40.55c0,.09,0,.13.09.13S148.43,40.55,148.37,40.55Z"/><path d="M155.51,35.72a0,0,0,0,0,0,0C155.49,35.71,155.48,35.72,155.51,35.72Z"/><path d="M156.23,35c0-.06,0-.09,0-.09s-.06,0-.06-.08h-.09A.15.15,0,0,0,156.23,35Z"/><path d="M154.35,38.2s0-.08-.13-.17C154.23,38.15,154.27,38.2,154.35,38.2Z"/><path d="M156.19,34.74s0-.06-.09-.08h0c0,.06,0,.09,0,.11a.1.1,0,0,1,.06.11c.06,0,.09,0,.09,0A.13.13,0,0,1,156.19,34.74Z"/><path d="M156.7,32.43c0,.09,0,.09,0,0S156.73,32.35,156.7,32.43Z"/><path d="M142.73,22.73c0-.08,0-.08,0,0S142.73,22.81,142.73,22.73Z"/><path d="M140.57,19.05s0,0,0,0h0S140.55,19.05,140.57,19.05Z"/><path d="M140.65,18.31s-.06,0-.06,0S140.7,18.35,140.65,18.31Z"/><path d="M140.33,19.82v.08a.07.07,0,0,0,.09-.08Z"/><path d="M140.59,18.33c-.06,0-.07,0,0,0A0,0,0,0,0,140.59,18.33Z"/><path d="M147.68,32.13a0,0,0,0,0,0,0C147.67,32.12,147.66,32.13,147.68,32.13Z"/><path d="M140.55,18.75c-.06,0-.07,0,0,0A0,0,0,0,0,140.55,18.75Z"/><path d="M140.44,19.59a.19.19,0,0,1-.11-.11c-.09.06-.09.09,0,.11s.08.05,0,.11h.13C140.49,19.64,140.48,19.6,140.44,19.59Z"/><path d="M141.1,17.26v0s0,0,0,0S141.13,17.26,141.1,17.26Z"/><path d="M140.33,19.69c-.06,0-.09,0-.09.13h.09Z"/><path d="M138.37,25.42c0,.14,0,.16,0,0S138.4,25.34,138.37,25.42Z"/><path d="M140.25,23.29c0-.09,0-.09,0,0S140.25,23.37,140.25,23.29Z"/><path d="M158.73,25a2.85,2.85,0,0,1,0-.92.56.56,0,0,1-.19-.21.28.28,0,0,0-.28-.13c-.06.14-.11.28-.15.41s-.09.26-.15.41a.1.1,0,0,1-.11-.06s-.05-.05-.11,0a2.56,2.56,0,0,1-.3.75.57.57,0,0,0,0,.66c-.14,0-.19.08-.13.26a0,0,0,0,1,0,0s0,0,0,0-.09,0-.09,0,0,0,0,0a.39.39,0,0,0,0,.21c0,.06,0,.06-.15,0a1.11,1.11,0,0,1-.13.81,3.76,3.76,0,0,0-.34.68.28.28,0,0,1,.06.21.39.39,0,0,1-.11.17,1,1,0,0,0-.15.19.36.36,0,0,0,0,.28.1.1,0,0,0-.11.06s-.05,0-.11,0V29c0,.07,0,.09-.13.06s0,.08,0,.08.06,0,.06.09a.39.39,0,0,0-.21.34c0,.06,0,.08.06.06s.06,0,.06.06a.55.55,0,0,1-.15.17c-.07.06-.08.14,0,.26h-.13a.77.77,0,0,1-.13.47.25.25,0,0,0-.17-.08,1.6,1.6,0,0,0-.06.26.32.32,0,0,1-.15.21.12.12,0,0,0,0,.15.12.12,0,0,1,0,.15.18.18,0,0,0-.15.26c0,.14,0,.24,0,.3s-.14-.13-.17-.13a.83.83,0,0,1,0,.49q-.06.24-.15.49a.08.08,0,0,0-.09-.09.17.17,0,0,1-.09.17l-.17.09c.09,0,.11.06.06.08s0,.07,0,.13.06,0,0,.06-.05,0,0-.06-.13,0-.13,0a2.14,2.14,0,0,1-.09.53,1.16,1.16,0,0,1-.3.53c0-.09,0-.13,0-.13a1,1,0,0,0-.09.32c0,.07-.06.14-.17.19v.13c-.06,0-.07.08,0,.15a.52.52,0,0,1,0,.19q-.21-.09-.3.17a.54.54,0,0,0,0,.43c-.06,0-.09,0-.09,0s0,0,0,0l-.47.92a8.38,8.38,0,0,1-.55.92c0-.06,0-.08,0-.08a1.19,1.19,0,0,1-.21.47c-.14.23-.24.31-.3.26a2.73,2.73,0,0,1-.38.64,5.26,5.26,0,0,1-.55.56.72.72,0,0,0-.19-.41,1,1,0,0,1-.24-.36.14.14,0,0,0,.15,0s0-.06,0-.09,0,0-.09,0a.28.28,0,0,0-.17-.06c.06-.06.06-.1,0-.13s-.06-.06,0-.08a.17.17,0,0,0,.13,0,.76.76,0,0,0-.11-.21.42.42,0,0,1-.06-.26.08.08,0,0,0,.06,0l.06,0a8.44,8.44,0,0,1-.21-1.3q0-.58-.09-1.26c.06,0,.11,0,.17-.13a1.44,1.44,0,0,1,0-.77,1,1,0,0,0,0-.77.46.46,0,0,0,.21-.43v-.43a0,0,0,0,1,0,0s0,0,0,0a.17.17,0,0,0,0-.13s0-.07,0-.13h.13a1.6,1.6,0,0,1-.06-.26c0-.09,0-.13.19-.13a1.8,1.8,0,0,1,.06-.9,5.52,5.52,0,0,0,.19-.9q.39-.09.3-.81c.09,0,.13,0,.13-.06s0-.09.09-.06a1.51,1.51,0,0,0,0-.43h.13a.35.35,0,0,1,.09-.26.32.32,0,0,0,0-.3h.09a4.08,4.08,0,0,0,.11-1.13,7.09,7.09,0,0,0-.15-1.22,7.06,7.06,0,0,0-.88-1,2.13,2.13,0,0,0-1.22-.53,1.58,1.58,0,0,0-1.39,0q-.66.34-1.26.6c0,.06,0,.09,0,.11s0,0-.06,0q-.34.26-.66.53c-.21.19-.43.36-.66.53,0,.06,0,.09,0,.09s0,0,0,.08q-.68.73-1.3,1.45a7,7,0,0,0-1,1.67,9.32,9.32,0,0,0-1,1.37q-.43.73-.81,1.54a.46.46,0,0,0-.13.34,1.78,1.78,0,0,0-.26.34.51.51,0,0,0-.09.38c-.09,0-.14,0-.15.09a.39.39,0,0,1-.11.17c0-.14,0-.23-.09-.26a.2.2,0,0,1-.13-.21.34.34,0,0,0,.21,0c-.06-.2-.1-.36-.13-.47a2.79,2.79,0,0,1,0-.6h.21a.59.59,0,0,1,0-.26l.09-.17a.82.82,0,0,1,0-.58,1.72,1.72,0,0,1,.28-.53l.38-.53a2,2,0,0,0,.28-.58c.14-.06.24-.24.3-.56a1.88,1.88,0,0,0,.38-.43.78.78,0,0,0,.13-.56,4.37,4.37,0,0,0,.94-1.41,16,16,0,0,1,.77-1.58s0,0,0-.13,0,0,0,0,0,0,0,0a2.71,2.71,0,0,1,.43-.62,1.1,1.1,0,0,0,.3-.62,1.1,1.1,0,0,1,.23-.36.73.73,0,0,0,.19-.41A2.16,2.16,0,0,0,146,22a3,3,0,0,1,.53-.86c0-.06,0-.09,0-.11s0,0,0-.11.1-.08.13-.06.07,0,.13,0a1.87,1.87,0,0,1,.43-.75,1.12,1.12,0,0,0,.3-.79.25.25,0,0,1,.17,0,.75.75,0,0,1,.26-.58,1.47,1.47,0,0,0,.38-.58c.06,0,.08,0,.06,0s0,.06.06.06a2.89,2.89,0,0,1,.36-.9,3.91,3.91,0,0,1,.58-.77s0,0,0,0,0,0,0,0h0a.08.08,0,0,0,.09.09,4.83,4.83,0,0,0,.43-.79,3.7,3.7,0,0,1,.38-.71.5.5,0,0,1,.13-.53.47.47,0,0,0,.17-.45.49.49,0,0,0,.17.26l.06,0s0,0,.06,0a.46.46,0,0,1,0-.36,1.29,1.29,0,0,1,.19-.36,2.24,2.24,0,0,0,.21-.34.39.39,0,0,0,0-.3.55.55,0,0,0,.19-.21.51.51,0,0,1,.24-.21.73.73,0,0,1,.24-.53.57.57,0,0,0,.15-.58.82.82,0,0,0,.32-.34c.07-.14.15-.29.24-.43s0-.08,0-.08,0,0,0,0a.33.33,0,0,0,.15-.24,1.6,1.6,0,0,1,.06-.28.33.33,0,0,0-.11-.13.19.19,0,0,1-.06-.17.67.67,0,0,0,0-.51,2,2,0,0,0,.28-.68l.15-.81h.13a.82.82,0,0,1,0-.23s0-.11-.06-.19h.13c0-.06,0-.09,0-.11s0,0-.06-.11l.19-.3a.25.25,0,0,0-.06-.34.28.28,0,0,1,.11-.06.1.1,0,0,0,.06-.11q.09-.81.13-1.71a3.08,3.08,0,0,0-.38-1.67q-.21-.73-.47-1.41a1.42,1.42,0,0,0-1-.9.51.51,0,0,1-.47,0c.06,0,.09,0,.09-.13a2.32,2.32,0,0,1-.47-.21,1.42,1.42,0,0,0-.56-.17.32.32,0,0,1-.47.08.64.64,0,0,0-.56-.08c0,.08,0,.13,0,.13a.82.82,0,0,0-.75.15,1.29,1.29,0,0,1-.71.32.51.51,0,0,1-.34.34c0,.06,0,.09,0,.11a.09.09,0,0,1,0,.06c-.14,0-.21,0-.19.13s0,.16-.15.21a4.43,4.43,0,0,0-.64.71,6.49,6.49,0,0,1-.64.75c.09.11.06.24-.06.36a1.46,1.46,0,0,0-.28.36l-.06,0-.06,0a.18.18,0,0,1,0,.19.18.18,0,0,0,0,.19.45.45,0,0,0-.28.32.45.45,0,0,1-.28.32A6.12,6.12,0,0,1,144,6.29a4.81,4.81,0,0,0-.75,1.56c.06,0,.09,0,.09,0a6.54,6.54,0,0,1-.55,1.28,4.08,4.08,0,0,0-.47,1.24,1.3,1.3,0,0,0-.28.43,1.22,1.22,0,0,0-.11.47,4.23,4.23,0,0,0-.73,1.58s0,0,0,0,0,0,0,0c0,.23,0,.37-.13.43s-.1.16,0,.3a1.53,1.53,0,0,0-.34.66,2.44,2.44,0,0,1-.34.75.69.69,0,0,1-.26.73,0,0,0,0,1,0,0s0,0,0,0h0c0,.06,0,.08,0,.06s.06,0,.06.06q-.09.34-.15.64a1.62,1.62,0,0,1-.28.6q.26.26-.13.51h.09s0,0,0,0,0,0,0,0h0a19.09,19.09,0,0,0-.45,1.86q-.19,1-.36,1.94c.06,0,.09,0,.09.13a1.13,1.13,0,0,1-.11.36,1,1,0,0,0-.11.28.08.08,0,0,1,.09.09c.09,0,.13-.06.13-.17s0,0,0,.06,0,0,0,0,0-.16.09,0h0c0-.08.07-.16.21-.21a2.79,2.79,0,0,1,0,.49.4.4,0,0,1-.26.32c0,.06,0,.09,0,.11s0,0,0,.06a.22.22,0,0,0,0-.11s0-.06,0-.06a.24.24,0,0,0-.09-.11.23.23,0,0,1-.09-.11c-.09.08-.07.2,0,.34a.34.34,0,0,0-.17.34,1.3,1.3,0,0,1,0,.38,0,0,0,0,1,0,0s0,0,0,0-.06.1,0,.13a.33.33,0,0,1,.11.13.26.26,0,0,0-.15,0s0,.06,0,.09.07-.07,0,0,0,.16,0,.13c-.06.26-.11.45-.15.58a1,1,0,0,0,0,.53c0-.08,0-.08,0,0s0,.11.06.09a.08.08,0,0,1,.09-.09c0,.06,0,.1,0,.13s0,.07.06.13a.08.08,0,0,1,.09.08,0,0,0,0,1,0,0s0,0,0,0-.11,0-.06,0,0,.07,0,.13-.14,0-.17.08-.09.1-.17,0a.38.38,0,0,0,0,.26c0,.11,0,.17-.09.17a.21.21,0,0,1,0-.11s0-.06,0-.06a1.4,1.4,0,0,1-.26.43.24.24,0,0,1,.11.28l-.15.19a23.42,23.42,0,0,0-1.79,1.54,9.08,9.08,0,0,1-2,1.41,2.89,2.89,0,0,0-.49-.6,6.39,6.39,0,0,1-.53-.56,7.75,7.75,0,0,0-2.31-1.37,20.53,20.53,0,0,0-2.82-.86,7.52,7.52,0,0,1-.94-.24,2,2,0,0,1-.81-.49,18.06,18.06,0,0,1,2.33-1.9,6.71,6.71,0,0,1,3.06-1,.91.91,0,0,1,.58-.15,1.56,1.56,0,0,0,.66-.11l.43-.66a1.41,1.41,0,0,0,.13-1,5.92,5.92,0,0,0-.66-.64,2.69,2.69,0,0,0-.88-.47,4.92,4.92,0,0,1-1,.06,7.55,7.55,0,0,0-1,0,5.93,5.93,0,0,0-2.27.58q-1,.49-1.84,1-.3.34-.62.66a4.63,4.63,0,0,0-.58.71,3.33,3.33,0,0,0-.41.88,4.06,4.06,0,0,0-.15,1.18,3.05,3.05,0,0,0,.08.3c-.1.2-.21.4-.3.59a8.57,8.57,0,0,1-.51,1l-.77,1.52q-.38.75-.73,1.52a30.5,30.5,0,0,1-1.73,2.82,20,20,0,0,1-2,2.48.72.72,0,0,0-.43.28.53.53,0,0,1-.47.19,1.49,1.49,0,0,1-.09-.71.67.67,0,0,0-.17-.58c.09-.68.16-1.38.21-2.1a9,9,0,0,1,.38-2,.48.48,0,0,1,0-.34,23.26,23.26,0,0,0,.81-2.48,11,11,0,0,1,.94-2.39.76.76,0,0,1,0-.36,1.36,1.36,0,0,0,0-.36,1.24,1.24,0,0,0-.45-.51l-.62-.38a1.47,1.47,0,0,1-.75-.09,2.1,2.1,0,0,0-.62-.17c-.14,0-.22.09-.24.19a.33.33,0,0,1-.15.24.47.47,0,0,0,0,.21.14.14,0,0,1,0,.17,9.18,9.18,0,0,0-.79,2.18q-.28,1.2-.62,2.39-.17,1-.3,2.24a13.31,13.31,0,0,0,0,2.37,8.09,8.09,0,0,0,.43,2.12,2.86,2.86,0,0,0,1.11,1.47,5,5,0,0,0,.49.26,2.1,2.1,0,0,0,.53.17.88.88,0,0,0,.53-.06,1,1,0,0,1,.49-.11,7.08,7.08,0,0,0,.73-.49c.2-.16.43-.32.68-.49,0-.11,0-.19.06-.24a.36.36,0,0,0,.15-.24q.51-.56,1-1.13a4.7,4.7,0,0,0,.79-1.35,4.6,4.6,0,0,0,.47-.79,6,6,0,0,1,.51-.88.86.86,0,0,1,.13-.51,1.49,1.49,0,0,0,.21-.51,5.3,5.3,0,0,0,.79-1.5,12.45,12.45,0,0,1,.71-1.62,1.16,1.16,0,0,1,.17-.62.61.61,0,0,0,.08-.22c.24.28.48.55.73.8a7.6,7.6,0,0,1,.94.51,1.87,1.87,0,0,0,1,.3c0,.06.06.09.11.09s.08,0,.11.09l1.62.36a11.21,11.21,0,0,1,1.52.47,5.22,5.22,0,0,1,1.26.71,3.79,3.79,0,0,1,.94,1.07L130,32q-1.5.58-2.91,1.26a23.1,23.1,0,0,0-2.67,1.52,11.25,11.25,0,0,0-2.24,1.94,8,8,0,0,1-.71,1.35,6.2,6.2,0,0,0-.66,1.35c.06.34,0,.57-.21.68a.31.31,0,0,1,0,.56c.11,0,.17,0,.17,0a.39.39,0,0,0,0,.17,1,1,0,0,0,.26.6,4.93,4.93,0,0,1,.38.43l.6.24a1.68,1.68,0,0,0,.73.06,1,1,0,0,0,.47.21.63.63,0,0,0,.24,0l.19-.08a1.7,1.7,0,0,0,.85,0,1.64,1.64,0,0,1,.73-.08,6.15,6.15,0,0,1,.71-.19l.71-.15a3.38,3.38,0,0,1,1.32-.45,1.84,1.84,0,0,0,1.15-.53c.06.06.09.08.11.06s.06,0,.15,0l1.84-1a4.69,4.69,0,0,0,1.54-1.39.5.5,0,0,0,.36-.21.67.67,0,0,1,.28-.26,1,1,0,0,1,.11-.28,1.15,1.15,0,0,0,.11-.24.79.79,0,0,1,.21-.15.83.83,0,0,0,.21-.15q.34-.77.83-1.82a6.06,6.06,0,0,0,.58-2.07,2.27,2.27,0,0,0,0-.94q-.11-.38-.19-.73a1.87,1.87,0,0,1,.51-.43,1.17,1.17,0,0,0,.47-.51c.06,0,.09,0,.09,0s0,0,.09,0a1,1,0,0,1,.36-.41.64.64,0,0,0,.28-.49.19.19,0,0,0,.21,0,4.44,4.44,0,0,1,.53-.6l.27-.26h0a16.24,16.24,0,0,0-.11,1.62,6.66,6.66,0,0,0,.15,1.67.67.67,0,0,0,0,.64,1.08,1.08,0,0,1,0,.81.45.45,0,0,1,.11.45.34.34,0,0,0,.15.41c-.06.06-.07.17,0,.34s.07.24.13.21a4.39,4.39,0,0,0,.09.83,7.37,7.37,0,0,0,.21.86q.13.41.24.81a2,2,0,0,1,.06.75.26.26,0,0,1,.15.28.65.65,0,0,0,.11.41.24.24,0,0,0,0,.17.89.89,0,0,1,.09.41,1.2,1.2,0,0,0,.09.45.31.31,0,0,1,.3.24.61.61,0,0,1,0,.45h1.2a2,2,0,0,1,.49-.43,4.67,4.67,0,0,0,.53-.38,1.44,1.44,0,0,1-.15-.53q0-.28,0-.58a3.92,3.92,0,0,0,.21-.38q.13-.26,0-.34a3.89,3.89,0,0,0,.24-.86c0-.29.09-.6.15-.94a.42.42,0,0,0,.19-.43c0-.2,0-.33.15-.38.06-.26.13-.54.21-.86a4.48,4.48,0,0,1,.3-.81.08.08,0,0,1-.09-.09,1.64,1.64,0,0,0,.36-.41.47.47,0,0,0,.06-.45c.09,0,.13-.06.13-.17a.15.15,0,0,1,.17-.17A.34.34,0,0,1,144,32c.16-.13.19-.26.11-.41a.25.25,0,0,1,.17,0,5.56,5.56,0,0,1,.51-1q.3-.45.64-.92c-.09,0-.13,0-.13-.09s.09,0,.09,0,0-.06.09-.06,0,.13,0,.13,0,0,0,0,0,0,0,0a.2.2,0,0,0,.11-.11.19.19,0,0,1,.11-.11c0-.06,0-.09,0-.11s-.06,0,0-.06.09-.07.09,0,0,.06.09.08a.14.14,0,0,0-.06-.13s0-.07,0-.13.09,0,.11,0,.05,0,.11,0V29a2.64,2.64,0,0,1,.43-.56,1.29,1.29,0,0,0,.34-.56.79.79,0,0,0,.64-.43,1.61,1.61,0,0,0,.75-.43,1.33,1.33,0,0,1,.79-.39,6.51,6.51,0,0,1-.26,1.07l-.34,1a10.67,10.67,0,0,0-.3,1,3.7,3.7,0,0,0-.09,1.13,1.11,1.11,0,0,0-.17.24c-.06.1-.06.18,0,.24s0,0,0,0,0,0,0,0a.52.52,0,0,0-.19.26.51.51,0,0,1-.19.26.44.44,0,0,0,.15.08c.07,0,.08.07,0,.13s0,.21-.09.39a.08.08,0,0,1,.09.09c0,.06,0,.07-.09,0s.12.11.11.17a.48.48,0,0,1-.09.17.48.48,0,0,0-.09.17.18.18,0,0,0,.06.17.14.14,0,0,0-.15.13c0,.09,0,.13.06.13s0,.1,0,.21a1.53,1.53,0,0,1-.19.24c-.07.07-.06.17,0,.28s-.1,0-.13,0-.07,0-.13.09.09,0,.09,0,.09.06.11,0a.1.1,0,0,1,.11-.06.26.26,0,0,0,0,.15s0,.08,0,.11,0-.08,0-.08a.46.46,0,0,0-.06.32,1.69,1.69,0,0,1,0,.45c.06.06.09.07.11,0s.05,0,.11,0a.84.84,0,0,0,0,.64.93.93,0,0,1,0,.73c.11,0,.15.1.11.21a.22.22,0,0,0,0,.26c-.06,0-.09,0-.09.06s0,.09-.13.06,0,.1.06.13.08.06,0,.08-.13,0-.15,0l-.06.13a3.68,3.68,0,0,0,.19.43.53.53,0,0,1,.06.47,1.11,1.11,0,0,1,.3.36.93.93,0,0,1,.13.45s0,0,0,0,0,0,0,0,.11.13.09.13a1.52,1.52,0,0,0,.19.66,4.71,4.71,0,0,0,.36.49s-.09,0-.17,0v.09l.21.21a.08.08,0,0,0,.09.08,1.73,1.73,0,0,0,.26.21l.3.17c0,.08,0,.12-.06.11s-.06,0-.06.06a.53.53,0,0,0,.3.08.28.28,0,0,1,.26.17.29.29,0,0,0-.15-.06c-.07,0-.11,0-.11.06l.41.15a.77.77,0,0,0,.41,0l-.09.17c.11,0,.19,0,.24,0s.09,0,.15,0,0-.09,0-.11,0,0,0,0a.41.41,0,0,0,.19.08.23.23,0,0,1,.15.09s0,0,.09,0c0-.17-.07-.21-.21-.13a.18.18,0,0,1,.09-.24.17.17,0,0,1,.21,0c0-.06.06-.07.19,0s.15.07.06.13a.17.17,0,0,0,.17-.09q0-.09.17,0a.69.69,0,0,0,.09-.3.37.37,0,0,1,.13-.26.08.08,0,0,1,.09.09.08.08,0,0,0,.09.08v-.17c-.06,0-.09,0-.09,0a.07.07,0,0,0,.06,0s0,0,.06,0a1.24,1.24,0,0,1,.19-.34,1.65,1.65,0,0,0,.19-.3c0,.06,0,.08,0,.08s0,0,0,0,.09,0,.09,0,0,0,0-.13-.09,0-.09,0h.09s0,0,0,0,0,0,0,0a1.8,1.8,0,0,1,.24-.47l.32-.43c.06,0,.08,0,.06.08s0,.09.06.09.08-.11,0-.17-.11-.11,0-.17.13-.17.21-.17-.05-.24,0-.28a1.08,1.08,0,0,0,.19-.15q0,.21,0,.17s.07,0,.13,0a.75.75,0,0,0,.06-.19.38.38,0,0,1,.11-.19.35.35,0,0,1-.13-.21.54.54,0,0,0,.19-.32.45.45,0,0,1,.28-.32.17.17,0,0,0,.13.17c0-.08,0-.14,0-.17a.14.14,0,0,0,.06-.13c.06,0,.06-.06,0-.08s0-.07,0-.13a.17.17,0,0,0,.13,0,.1.1,0,0,0-.06-.11.1.1,0,0,1-.06-.11q.21,0,.06-.26t.06-.26q0,.17.06,0a.37.37,0,0,1,.15-.19.17.17,0,0,1,0,.19,2.16,2.16,0,0,0-.09.28c.14.06.22,0,.24-.09a.42.42,0,0,1,.11-.26c-.11,0-.13-.08,0-.15s.09-.14,0-.19a.67.67,0,0,0-.09-.26c-.06-.11,0-.18.09-.21s0,.09,0,.11,0,0,0,.06,0-.06,0,0,0,.06,0,.06a.43.43,0,0,0,.09-.24.24.24,0,0,1,.13-.19s-.06,0-.11-.08,0-.09,0-.09.06.06.11,0,.06,0,.06.06,0,.14,0,.26,0,.17.13.17a.15.15,0,0,1,0-.17c0-.06,0-.08-.06-.08s0,.17,0,.17,0-.17,0-.17,0-.09.13-.09a.72.72,0,0,0-.09-.36.72.72,0,0,1-.09-.36c.09,0,.13,0,.15,0a.41.41,0,0,0,0-.13.23.23,0,0,1,0-.11s.05,0,.11,0a.52.52,0,0,1-.09-.3c0-.11.07-.14.21-.09a.23.23,0,0,1,.13-.32q.21-.11,0-.32c.17-.06.26-.27.26-.64a.17.17,0,0,0,.13,0,.38.38,0,0,1-.06-.28.41.41,0,0,0,0-.24c.06-.06.13-.06.21,0s.1,0,0-.13a.16.16,0,0,1,0-.15c0-.07.05-.11.11-.11a18.09,18.09,0,0,1,.55-1.79q.34-.94.64-1.92l.36-1a2.2,2.2,0,0,0,.15-1l.19-.41a.38.38,0,0,0,0-.41A1.31,1.31,0,0,0,158.73,25Zm-20.2,0c0-.08,0-.08,0,0S138.57,25.08,138.54,25Zm-5.45,10a6.63,6.63,0,0,1-1.18,1.88,7.44,7.44,0,0,1-1.67,1.39,14.26,14.26,0,0,1-2,1c-.06,0-.06,0,0,0s.06,0,0,.08a3,3,0,0,0-.64.28.47.47,0,0,1-.56,0,.72.72,0,0,1-.3.3.45.45,0,0,1-.26,0,2.19,2.19,0,0,1-1,.36l-1.26.15a2.73,2.73,0,0,1-1.37-.6c0-.14,0-.28.06-.41s0-.28.06-.45a12.82,12.82,0,0,1,2-2.52,1.48,1.48,0,0,0,.75-.45,2.72,2.72,0,0,1,.62-.53,18.42,18.42,0,0,1,2.95-1.32q1.58-.56,3.16-1.15a.38.38,0,0,1,.19-.11.2.2,0,0,0,.15-.15.39.39,0,0,0,.41-.06,1,1,0,0,1,.41-.19A7,7,0,0,1,133.09,35Zm6.39-.47c0-.09,0-.14,0-.15a.19.19,0,0,0,.11-.11c-.09,0-.11,0-.06,0s.06,0,.06,0a.19.19,0,0,1,.21.21l-.13.13a.17.17,0,0,1-.13,0,.12.12,0,0,1-.17,0c-.06,0,0-.05.17,0C139.56,34.54,139.54,34.53,139.48,34.53Zm-.08-5.64c0,.11,0,.1,0,0S139.42,28.77,139.39,28.88Zm-.13-1.38h0Zm0,.91c0,.06-.06.08-.09.06a.15.15,0,0,0-.13,0,.77.77,0,0,1,.06-.34c0-.08,0-.18-.11-.3s.06-.11.11-.06a.55.55,0,0,0,.15.11.41.41,0,0,0-.06.26Zm-.13.26s0,0,0-.08.09,0,.11.11,0,.09-.11.06S139.16,28.67,139.14,28.67Zm.26-3.33,0,0S139.34,25.37,139.39,25.34Zm-.09-.08c0-.09,0-.09,0,0S139.34,25.34,139.31,25.25Zm.17-.21a.07.07,0,0,1,.06,0l0,.07A.16.16,0,0,1,139.48,25Zm0,0v0c.06,0,.08,0,.06-.06s0,0,.06,0A.11.11,0,0,1,139.48,25Zm-.28,2.65a.15.15,0,0,0-.11,0,0,0,0,0,1,0,0s0,0,0,0a.2.2,0,0,0,0,0l.12-.11h.06C139.26,27.62,139.24,27.64,139.2,27.64Zm1.28-7.07s0,.06,0,.06,0,.13-.09.13,0,.11,0,.06,0-.06,0-.06a.17.17,0,0,1,0-.13h0C140.43,20.55,140.44,20.53,140.48,20.57Zm-.11.45v.09a0,0,0,0,0,0,0h0a0,0,0,0,1,0,0s0,0,0,0S140.32,21,140.38,21Zm6.07-.41a.07.07,0,0,0,0,.06c-.06,0-.07-.05,0-.06a.07.07,0,0,0,0-.06C146.46,20.58,146.47,20.6,146.45,20.61ZM149.52.07s0,0-.13,0S149.44.07,149.52.07Zm-6,14.53c0-.08,0-.07,0,0S143.47,14.75,143.5,14.61Zm-.15.66s-.05.05,0,.11-.07,0,0-.06a.2.2,0,0,0,0-.11C143.38,15.24,143.39,15.26,143.35,15.27Zm-.06-.19c0-.08,0-.11.06-.06s0,.06-.06.06a0,0,0,0,1,0,0S143.23,15.11,143.28,15.08Zm-.15.17a.18.18,0,0,1,.15-.08l-.06.11a.47.47,0,0,0-.06.11C143.1,15.35,143.09,15.31,143.13,15.25Zm-.21-3.36c0,.07,0,.06-.06,0S142.9,11.82,142.92,11.89Zm-.15.49c-.06,0-.09,0-.09,0s0-.07,0-.21S142.77,12.27,142.77,12.39Zm-.51,1s0-.05,0-.11.11,0,.06.13-.09.11-.15.08S142.23,13.36,142.26,13.35Zm-.34,5.36c0-.06,0-.08-.06-.06s-.05,0,0-.06a.23.23,0,0,0,.26-.19c0-.13.13-.19.3-.19a2.92,2.92,0,0,1,.21-.88,4.23,4.23,0,0,0,.26-.88c-.06-.17-.13-.26-.21-.26l.06-.13s0-.07,0-.13,0,0,0,0,0,0,.09,0,0-.19,0-.32.16-.18.21-.15,0,0,.09,0-.1.1,0,.13l.17.08c0-.11,0-.14,0-.08l.13-.28a.63.63,0,0,1,.21-.28c0-.06,0-.08-.06-.06s-.05,0,0-.06-.09,0-.09-.13.09,0,.09.13.09,0,.09,0,0-.07.13,0a.52.52,0,0,1,0-.34c0-.09,0-.16-.17-.21a1.26,1.26,0,0,0,.17-.51.41.41,0,0,0,.3-.47.32.32,0,0,0,.19-.09.18.18,0,0,1,.19,0,.52.52,0,0,1,.13-.38.49.49,0,0,0,.09-.43.34.34,0,0,1,.21,0,.26.26,0,0,1,.09-.3.19.19,0,0,1-.11-.13.1.1,0,0,0-.11-.08.73.73,0,0,0-.06.19.2.2,0,0,1-.15.15,3.24,3.24,0,0,0,.06-.32c0-.1.09-.18.24-.24a.22.22,0,0,0,0-.19.26.26,0,0,1,0-.15s0,0,0,0,0,0,0,0a3.73,3.73,0,0,1,.49-1.43,5.19,5.19,0,0,0,.58-1.47.74.74,0,0,0,.36-.45,2.32,2.32,0,0,1,.28-.58,1,1,0,0,0,.43-.47,2.29,2.29,0,0,1,.34-.56c.2,0,.32-.07.36-.21a.45.45,0,0,1,.28-.3V5.63s0,0,0,0,0,0,.09,0,0-.1,0-.13a.07.07,0,0,0,0-.08q.38-.56.85-1.11l.9-1.07c0-.09,0-.13,0-.13a.52.52,0,0,1,.24-.13c.1,0,.15-.11.15-.26a.29.29,0,0,0,.3-.06l.17-.24a1.3,1.3,0,0,1,.62.62l.41.83a3.51,3.51,0,0,1,0,.92,3.38,3.38,0,0,0,0,.92c-.09.31-.16.66-.24,1s-.15.71-.24,1l-.11.3a.24.24,0,0,1-.24.17c0,.06,0,.09,0,.11s0,.05,0,.11a1.12,1.12,0,0,0-.26.58.77.77,0,0,1-.34.53,2,2,0,0,1-.53,1.13,2.09,2.09,0,0,0-.53,1.18.42.42,0,0,0-.38.6c0,.06-.09,0-.17,0a.75.75,0,0,0-.3.58.64.64,0,0,1-.3.53s0,.11,0,.26c-.06-.09-.11-.09-.15,0a.27.27,0,0,0,0,.24.74.74,0,0,0-.36.36,1.82,1.82,0,0,0-.19.49,1.54,1.54,0,0,0-.47.75,1,1,0,0,1-.55.66s0,0,.09,0l-1.92,3.27q-.94,1.6-1.88,3.36h0c0,.08,0,.11,0,.06s0-.06,0-.06v-.13c-.06,0-.09.06-.09.11a.15.15,0,0,1,0,.11,0,0,0,0,0,0,0,0,0,0,0,1,0,0c0,.06,0,.08,0,.08a.08.08,0,0,0-.09.09,9,9,0,0,1-.83,1.6,10.5,10.5,0,0,0-.88,1.65c.06,0,.08,0,.06.06l-.06.19c-.06-.08-.11-.07-.15,0a.56.56,0,0,0,0,.34,1.86,1.86,0,0,1-.09-.79c0-.27.06-.54.11-.81l.11-.68,0-.13a1.52,1.52,0,0,0,0-.81s0,0,.08,0a.27.27,0,0,0,0-.21.37.37,0,0,1,0-.17h.13a1.17,1.17,0,0,0-.13-.6.33.33,0,0,0,.13-.45.65.65,0,0,1-.09-.45c-.09,0-.12-.06-.11-.08s0-.06-.11-.09l.19-.08a.23.23,0,0,1,.19,0,1,1,0,0,1,.11-.49,2.75,2.75,0,0,0,.19-.45s0,0-.13,0a.66.66,0,0,1,.17-.13.74.74,0,0,1,.3,0s0-.07,0-.13,0-.08,0-.08,0,.11,0,.06,0-.06,0-.06a1.13,1.13,0,0,0,0-.34,1.1,1.1,0,0,1,0-.34,0,0,0,0,0,0-.09c0-.06,0-.07.06,0a.14.14,0,0,0,.15,0c0-.06,0-.09,0-.09s-.07,0,0-.13h.09v-.08c-.06,0-.09,0-.11,0l-.06.09a.12.12,0,0,1,0-.17.28.28,0,0,0,.06-.17c.06,0,.09,0,.09,0s0,0,.09,0a.52.52,0,0,0,0-.3C141.72,18.83,141.77,18.77,141.92,18.71Zm-1.37,1.92c0-.09,0-.14.09-.15a.19.19,0,0,0,.13-.11,0,0,0,0,1,0,0,0,0,0,0,0,0,0A.31.31,0,0,1,140.55,20.64Zm.68-3.85c0-.08,0-.08,0,0S141.26,16.87,141.23,16.79Zm.17,3.72v-.09h.09v.09Zm.26-5.47c.06,0,.09,0,.09,0v.09h-.21c0-.06,0-.07.11,0S141.72,15.12,141.66,15Zm-.13.17c.09,0,.1.06,0,.11a.28.28,0,0,1-.17.06.08.08,0,0,1,.09-.09C141.54,15.29,141.56,15.26,141.53,15.21Zm-.15-.77s.05-.07,0-.13.09.07.09,0,0,0,.09,0a.08.08,0,0,1-.09.09c0,.08,0,.14,0,.17s0,0,0-.09a0,0,0,0,0,0,0C141.34,14.49,141.34,14.47,141.38,14.44Zm-.66,2.18s0-.06.09-.08v.08c.09,0,.13,0,.15-.06s.06-.09.15-.06a.1.1,0,0,1-.06-.13c0-.06.06-.07.15,0s0-.05,0-.06,0,0,0-.06a.41.41,0,0,0,.13-.3c.11,0,.18,0,.19,0s.08-.07.19,0,0,.11,0,.09,0-.07,0-.13.11,0,.06.06,0,.08,0,.11a.4.4,0,0,0-.21.36.4.4,0,0,1-.21.36.17.17,0,0,1,0-.13h-.13s0,0,0,0,0,0,0,0-.13,0-.15.09a.1.1,0,0,1-.11.08q0,.13,0,.17a.08.08,0,0,1,.09.09c.14,0,.18.09.13.19a.25.25,0,0,0,0,.28c-.06,0-.09,0-.09,0s0,0-.09,0,0,0,0,0,0,0,0,0-.09,0-.09,0,0,0,.09,0v0c-.06,0-.08,0-.06-.06s0-.06,0-.06,0,0,.13-.08,0,0,0,0,0,0,0-.08H141v-.09a.17.17,0,0,0-.13,0s-.07,0-.13,0,0-.16-.13-.13C140.69,16.67,140.72,16.65,140.72,16.62Zm-.09.26a.07.07,0,0,1,.06,0s0,0,.06,0a2.29,2.29,0,0,1,.21.34c0,.14,0,.21-.17.19s-.19,0-.13.15a.14.14,0,0,1-.13-.06.19.19,0,0,0-.17-.06A1.13,1.13,0,0,0,140.63,16.87Zm.32.75c0,.07,0,.08-.06,0S141,17.55,141,17.62Zm-.36.45a0,0,0,0,1,0,0S140.53,18.1,140.59,18.07Zm-.45,1.58c.1-.09.09-.13,0-.13a.08.08,0,0,1,0-.06.17.17,0,0,0,0-.11c.09,0,.13,0,.15-.06s.06-.09.15-.06a.14.14,0,0,1,0-.15.26.26,0,0,0,0-.15,0,0,0,0,0,0,0c-.14-.11-.19-.22-.13-.32a1.2,1.2,0,0,0,.13-.36s-.07,0-.13-.08a0,0,0,0,1,0,0s0,0,0,0a.1.1,0,0,0,.06-.13c0-.06,0-.07.06,0a0,0,0,0,1,0,0c0,.06,0,.09.06.09s.05,0,0,.08.13,0,.15-.06.05-.11.11-.11,0-.09,0-.11,0-.05,0-.11a.26.26,0,0,0,.17,0l.17-.06a.34.34,0,0,0-.09.26.52.52,0,0,0,.09.3c-.09-.06-.15-.06-.19,0a.12.12,0,0,0,0,.17c0-.09,0-.11,0-.06s0,.06,0,.06,0,0,0,0,0,0,0,.09c-.17-.06-.27,0-.3,0s.06.06,0,.09-.06.06-.06.08h.09s0,0,0,0,0,0,0,.09h.09a.31.31,0,0,0,.17.3c-.09.06-.12.12-.11.19s0,.12-.15.15a.31.31,0,0,0,.11.13.14.14,0,0,1,.06.13h-.13c0,.06,0,.09,0,.09a.8.8,0,0,0-.19.32,3,3,0,0,1-.15.36c-.06-.06-.07-.1,0-.13s0-.07,0-.13-.09,0-.09-.08,0,0,0,0,0,0-.09,0,0-.08.13-.08v0c.06.08.09.07.11,0s0-.17-.06-.17,0,.15,0,.11,0-.08,0-.11a0,0,0,0,0,0,0c0-.06,0-.08.06-.08s.06,0,.06-.09,0,0,0,0,0,0,0,0v0c-.06-.06-.1,0-.13,0S140,19.74,140.14,19.65Zm0,1.82s0-.06,0-.06S140.14,21.51,140.1,21.47Zm0-1.43s.05-.07,0-.13,0,0,0,0,0,0,0,0,0,.21-.13.21S140,20.07,140.06,20Zm-.11.09a0,0,0,0,1,0,0S139.89,20.15,139.95,20.12Zm0,1.45a.25.25,0,0,1,.13.21c-.09,0-.13,0-.13,0s.06,0,0,.06-.05,0,0-.06h-.09c0-.06,0-.09,0-.09s0,0,0-.08S139.95,21.63,139.95,21.58Zm0,.47a0,0,0,0,1,0,0s0,0,0,0,0-.11.06-.06S140,22,139.95,22Zm-.32,1.73a.06.06,0,0,1,0,0,2.75,2.75,0,0,1,.09-.44c.14,0,.22,0,.24-.11s.09-.15.24-.15,0-.09,0-.09,0,0,0-.08.1.07.13,0,0-.07,0-.13.13,0,.13,0a.35.35,0,0,1,0,.15.42.42,0,0,0,0,.19.15.15,0,0,0,.09.15,3.77,3.77,0,0,0-.38.34c.09.06.09.11,0,.15a.36.36,0,0,0-.15.24,1.3,1.3,0,0,0,0,.32.32.32,0,0,1-.09.24c0,.06,0,.07-.09,0s-.11,0-.09,0-.1-.09-.13-.09.14-.13.09-.21,0-.16.13-.21a1.9,1.9,0,0,1,0-.4h0a0,0,0,0,1,0,0s0,0,0,0S139.59,23.73,139.63,23.78Zm-.24-3.57c.06,0,.07,0,0-.08s.1.07,0,.13a.14.14,0,0,1-.17,0A.07.07,0,0,1,139.39,20.21Zm-.19,4.15.06-.08s0,0-.09,0a.18.18,0,0,1,.06-.11s0-.06-.06-.06c.09-.08.13-.06.13.06a.66.66,0,0,0,0,.28.18.18,0,0,0-.15.11c0,.07-.06.05-.06-.06A.32.32,0,0,0,139.2,24.35Zm0,.26a.17.17,0,0,1,.17-.09.17.17,0,0,0-.06.24.71.71,0,0,1,.06.28,0,0,0,0,1,0,0s0,0,0,0a.22.22,0,0,0-.11.3.21.21,0,0,1,0,.15l0,0a.2.2,0,0,1-.1.06,1.29,1.29,0,0,1,.09-.45.34.34,0,0,0-.13-.41A.28.28,0,0,0,139.18,24.61Zm-.47,8.59c0-.09,0-.09,0,0S138.74,33.29,138.71,33.2Zm.34-3.12a1,1,0,0,1-.13-.26c0-.06.05-.07.06,0s.05,0,.11,0a.12.12,0,0,1,0-.17c0-.06,0-.1-.11-.13.14-.08.19-.18.15-.28a1.79,1.79,0,0,1-.11-.36.14.14,0,0,0,.11,0,.15.15,0,0,1,.11,0,.44.44,0,0,0,0,.26c.06-.08.09-.1.09,0a.39.39,0,0,1,0,.17c.11,0,.16,0,.13-.15s0-.18.13-.15c-.06.11-.07.18,0,.19a.51.51,0,0,1,.13.15.12.12,0,0,1-.17,0c-.06,0-.1,0-.13,0a.82.82,0,0,1,0,.26.29.29,0,0,0,.09.21.17.17,0,0,1,0-.13c.09,0,.09,0,0,.13h0V30a0,0,0,0,1,0,0s0,0,0,0-.09,0-.09-.08a.31.31,0,0,0-.13.41.32.32,0,0,1-.13.41c0-.06,0-.09,0-.09a.32.32,0,0,0-.11-.13.14.14,0,0,1-.06-.13C139.07,30.25,139.11,30.17,139.05,30.08Zm.3.09c0,.11,0,.1,0,0S139.38,30.05,139.35,30.17Zm-.21,2.95a1.29,1.29,0,0,0,0-.83,1.22,1.22,0,0,1,0-.88s0,0-.13,0a.35.35,0,0,0,0-.15.23.23,0,0,1,.09-.15.08.08,0,0,0-.09-.09,0,0,0,0,1,0,0s0,0,0,0c-.11-.11-.1-.2,0-.26s.09,0,.09.06,0,.11.09.11a.1.1,0,0,0-.06.13.18.18,0,0,1-.06.17c.11,0,.14,0,.09.08s.09,0,.09,0,0,0,.09,0,0,.09,0,.11,0,.05-.06.11.09,0,.09,0,0,0,.09,0a.07.07,0,0,1,0,.06.07.07,0,0,0,0,.06.17.17,0,0,0,.13,0,.17.17,0,0,1,.13,0c0,.06,0,.09,0,.09s-.11.08-.15.06a.86.86,0,0,0-.24,0c.11.06.13.1.06.13a.27.27,0,0,0-.15.13c.06.06.09.09.09.11a.83.83,0,0,0,0,.15c.09,0,.11,0,.06,0s-.06,0-.06,0a0,0,0,0,1,0,0,0,0,0,0,0,0,0c-.06.06-.06.09,0,.11s.07.05,0,.11.09,0,.09,0,0,0,.09,0a.23.23,0,0,1-.17.26.75.75,0,0,0,.21.21c0,.06-.06.09-.17.09a.24.24,0,0,1,.11.08s.05,0,.11,0c0,.2,0,.3-.13.3a1.51,1.51,0,0,1,0,.36c0,.13-.07.19-.21.19a.39.39,0,0,0,0-.3.23.23,0,0,1,0-.3c0-.06,0-.07,0,0S139.19,33.12,139.14,33.12Zm.41,2.84s.06,0,.06.06.06.08,0,.08-.06,0,0-.08S139.5,36,139.54,36Zm.11.49h-.09v-.08h.09Zm.13-.34c0-.08,0-.08,0,0S139.81,36.19,139.78,36.11Zm0-1.11s0,.07,0,.13-.17,0-.17.13a.27.27,0,0,1-.13-.13.29.29,0,0,0-.13-.13s0,0,0,.13-.09,0-.09-.11a.15.15,0,0,0-.09-.15c0-.06.07-.09.21-.09a0,0,0,0,1,0,0s0,0,.09,0v0l.06,0s0,0,0,0,.07,0,.21,0c-.06-.11-.05-.13,0,0s.09.07.06,0S139.85,35,139.82,35Zm.43-2.74a.08.08,0,0,1-.06,0l-.06,0a.25.25,0,0,1,.17-.09A.18.18,0,0,0,140.25,32.26Zm7.46,5.83a.18.18,0,0,0-.11-.06.26.26,0,0,0,.06-.11.1.1,0,0,1,.11-.06c0,.14,0,.21,0,.21S147.75,38.14,147.71,38.1Zm2.07,3.78s.06,0,.17,0S149.89,41.88,149.78,41.88Zm4-7.1v0s0,0,0,0S153.78,34.78,153.76,34.78Zm.15,3.91c0,.07,0,.08-.06,0S153.92,38.62,153.9,38.69Zm1.09-2.2c0-.09,0-.09,0,0S155,36.58,155,36.49Zm.09.08a.19.19,0,0,1,0,.09s0,0,0,0A0,0,0,0,1,155.08,36.58Zm.06-.75s-.05.05,0,.11-.07,0,0-.06a.21.21,0,0,0,0-.11C155.18,35.8,155.19,35.82,155.14,35.83Zm0-4.42c0-.09,0-.09,0,0S155.19,31.49,155.17,31.41Zm.38,4c0,.09,0,.11,0,.09s-.1.05-.13,0,0-.12,0-.15S155.58,35.34,155.55,35.42Zm.94-3c.06-.06.09,0,.09,0S156.55,32.5,156.49,32.39Z"/><path d="M138.45,25.51c0,.14,0,.16,0,0S138.48,25.42,138.45,25.51Z"/><path d="M139.41,35s0,0,0,0h0S139.4,35,139.41,35Z"/><path d="M140.16,23.2c0-.08,0-.08,0,0S140.16,23.29,140.16,23.2Z"/><path d="M139.65,23.82h0Z"/><path d="M140.63,17.24s0,0,0-.06a.07.07,0,0,1,0,.06s0,0,0,.06A.07.07,0,0,1,140.63,17.24Z"/><path d="M139.48,17.64a0,0,0,0,0,0,0C139.46,17.63,139.45,17.64,139.48,17.64Z"/><path d="M152.6,40.6a0,0,0,0,0,0,0h0Z"/><path d="M142,19a0,0,0,0,0,0,0h0Z"/><path d="M141.7,19.52a.08.08,0,0,0,.09-.09h-.09C141.64,19.5,141.64,19.52,141.7,19.52Z"/><path d="M141.89,19.29c0-.07.08-.09.19-.06s.06-.05,0-.06-.07,0,0-.06.09,0,.09-.13l-.13-.13c-.06,0-.07.05,0,.06a.07.07,0,0,1,0,.06s0,0,0,0,0,0,0,0v0a0,0,0,0,1,0,0c-.06.06-.09.1-.09.13s.13,0,.13,0-.09,0-.11,0-.05.07-.11,0a.07.07,0,0,1,0-.06.07.07,0,0,0,0-.06c-.06,0-.09,0-.09,0s0,0,0,0a.08.08,0,0,1,0,.06s0,.05,0,.11a.08.08,0,0,1,.09.08A.21.21,0,0,0,141.89,19.29Z"/><path d="M147.51,31.92a0,0,0,0,0,0,0C147.5,31.91,147.48,31.92,147.51,31.92Z"/><path d="M145.57,29.7s0,0,0,0h0S145.56,29.7,145.57,29.7Z"/><path d="M138.6,25.49s.06,0,.06,0S138.56,25.44,138.6,25.49Z"/><path d="M144,13.75c-.06,0-.07,0,0,0S144,13.78,144,13.75Z"/><path d="M142.39,23.39a.07.07,0,0,0,0-.06c-.06,0-.09,0-.09,0S142.36,23.41,142.39,23.39Z"/><path d="M144.86,11.7c0-.09,0-.09,0,0S144.86,11.79,144.86,11.7Z"/><path d="M142.21,18.84c0-.06,0-.09,0-.11a.19.19,0,0,1-.11-.11c0,.06,0,.09,0,.11A.2.2,0,0,1,142.21,18.84Z"/><path d="M141,22.3a0,0,0,0,0,0,0C141,22.29,141,22.3,141,22.3Z"/><path d="M144.95,11.79c0-.08,0-.08,0,0S144.95,11.87,144.95,11.79Z"/><path d="M144.82,11.83c0,.09,0,.11,0,.06S144.88,11.83,144.82,11.83Z"/><path d="M143.8,15.21c.06,0,0-.08,0-.15s-.12-.08-.15,0l.06.08A.22.22,0,0,0,143.8,15.21Z"/><path d="M9.94,28.53A5.43,5.43,0,0,0,13.08,24c0-3-2.62-5.27-6-5.27H.54a.54.54,0,0,0-.54.54V38.13a.54.54,0,0,0,.54.54H7.44c3.48,0,6.21-2.31,6.21-5.5A5.12,5.12,0,0,0,9.94,28.53ZM3.68,22.12h3a2.33,2.33,0,0,1,2.45,2.42,2.44,2.44,0,0,1-2.45,2.56h-3ZM7.12,35.32H3.68V30.24H6.78a2.76,2.76,0,0,1,2.91,2.48A2.54,2.54,0,0,1,7.12,35.32Z"/><path d="M32.56,18.73H21a.54.54,0,0,0-.54.54V38.14a.54.54,0,0,0,.54.54h11.6a.54.54,0,0,0,.54-.54V35.8a.54.54,0,0,0-.54-.54H24.12v-5h7a.54.54,0,0,0,.54-.54V27.37a.56.56,0,0,0-.54-.54h-7V22.15h8.43a.54.54,0,0,0,.54-.54V19.28A.54.54,0,0,0,32.56,18.73Z"/><path d="M50.78,18.73H38.33a.54.54,0,0,0-.54.54v2.34a.54.54,0,0,0,.54.54h4.36v16a.56.56,0,0,0,.54.54h2.65a.56.56,0,0,0,.54-.54v-16h4.36a.54.54,0,0,0,.54-.54V19.28A.54.54,0,0,0,50.78,18.73Z"/><path d="M68.27,18.73H55.82a.54.54,0,0,0-.54.54v2.34a.54.54,0,0,0,.54.54h4.36v16a.56.56,0,0,0,.54.54h2.65a.56.56,0,0,0,.54-.54v-16h4.36a.54.54,0,0,0,.54-.54V19.28A.54.54,0,0,0,68.27,18.73Z"/><path d="M86.75,18.73H75.16a.54.54,0,0,0-.54.54V38.14a.54.54,0,0,0,.54.54h11.6a.54.54,0,0,0,.54-.54V35.8a.54.54,0,0,0-.54-.54H78.32v-5h7a.54.54,0,0,0,.54-.54V27.37a.56.56,0,0,0-.54-.54h-7V22.15h8.43a.54.54,0,0,0,.54-.54V19.28A.54.54,0,0,0,86.75,18.73Z"/><path d="M109.11,24.86a6.17,6.17,0,0,0-6.21-6.12H94.75a.54.54,0,0,0-.54.54V38.14a.54.54,0,0,0,.54.54h2.62a.56.56,0,0,0,.54-.54V30.87h3.16l3.79,7.55a.49.49,0,0,0,.46.26h3a.54.54,0,0,0,.48-.83l-3.9-7.24A6.29,6.29,0,0,0,109.11,24.86Zm-6.52,3H97.94V22.15h4.64a2.83,2.83,0,0,1,2.82,2.76A2.9,2.9,0,0,1,102.59,27.82Z"/></g></g></svg>